<svg xmlns="http://www.w3.org/2000/svg" width="1441" height="722" fill="none" viewBox="0 0 1441 722"><g opacity=".75"><path fill="#616161" fill-opacity=".1" d="M684.295 280.189C663.31 280.189 646.288 298.522 646.288 320.907C646.288 343.291 663.4 361.624 684.295 361.624C705.189 361.624 722.301 343.291 722.301 320.907C722.301 298.522 705.279 280.189 684.295 280.189ZM684.295 359.791C664.301 359.791 648.09 342.327 648.09 321.003C648.09 299.68 664.391 282.216 684.295 282.216C704.199 282.216 720.5 299.68 720.5 321.003C720.5 342.327 704.289 359.791 684.295 359.791Z"/><path fill="#616161" fill-opacity=".1" d="M683.394 320.521L661.329 343.677L662.59 345.028L685.195 321.389V290.996H683.394V320.521Z"/><path fill="#616161" fill-opacity=".1" d="M338.297 608.361L330.655 616.548L338.297 624.735L345.939 616.548L338.297 608.361Z"/><path fill="#616161" fill-opacity=".1" d="M574.779 616.541L584.325 626.768L593.872 616.541L584.325 606.313L574.779 616.541ZM584.325 622.619L578.652 616.541L584.325 610.462L589.999 616.541L584.325 622.619Z"/><path fill="#616161" fill-opacity=".1" d="M574.779 638.443L584.325 648.67L593.872 638.443L584.325 628.215L574.779 638.443ZM584.325 644.522L578.652 638.443L584.325 632.364L589.999 638.443L584.325 644.522Z"/><path fill="#616161" fill-opacity=".1" d="M574.779 660.345L584.325 670.573L593.872 660.345L584.325 650.118L574.779 660.345ZM584.325 666.424L578.652 660.345L584.325 654.267L589.999 660.345L584.325 666.424Z"/><path fill="#616161" fill-opacity=".1" d="M574.779 682.151L584.325 692.379L593.872 682.151L584.325 671.924L574.779 682.151ZM584.325 688.326L578.652 682.248L584.325 676.169L589.999 682.248L584.325 688.326Z"/><path fill="#616161" fill-opacity=".1" d="M574.779 704.054L584.325 714.281L593.872 704.054L584.325 693.826L574.779 704.054ZM584.325 710.229L578.652 704.15L584.325 698.071L589.999 704.15L584.325 710.229Z"/><path fill="#616161" fill-opacity=".1" d="M496.875 615.093H355.567V617.988H496.875V705.501H564.962V702.606H499.577V683.598H564.962V680.704H499.577V661.793H564.962V658.898H499.577V639.89H564.962V636.996H499.577V617.988H564.962V615.093H498.226H496.875Z"/><path fill="#616161" fill-opacity=".1" d="M369.346 151.477C390.331 151.477 407.353 133.144 407.353 110.759C407.353 88.3747 390.241 70.0423 369.346 70.0423C348.452 70.0423 331.34 88.3747 331.34 110.759C331.34 133.144 348.362 151.477 369.346 151.477ZM369.346 71.8755C389.34 71.8755 405.551 89.3395 405.551 110.663C405.551 131.986 389.25 149.45 369.346 149.45C349.443 149.45 333.141 131.986 333.141 110.663C333.141 89.3395 349.352 71.8755 369.346 71.8755Z"/><path fill="#616161" fill-opacity=".1" d="M379.794 104.005L378.533 102.655L365.384 116.645L360.25 111.145L358.989 112.496L365.384 119.443L379.794 104.005Z"/><path fill="#616161" fill-opacity=".1" d="M342.797 20.8C347.756 19.9378 351.124 14.9321 350.319 9.61942C349.514 4.30677 344.842 0.698968 339.883 1.56118C334.924 2.42339 331.556 7.4291 332.361 12.7418C333.166 18.0544 337.839 21.6622 342.797 20.8Z"/><path fill="#616161" fill-opacity=".1" d="M371.958 21.9921C377.452 21.9921 381.955 17.1678 381.955 11.2821C381.955 5.39646 377.452 0.572144 371.958 0.572144C366.464 0.572144 361.961 5.39646 361.961 11.2821C361.961 17.1678 366.374 21.9921 371.958 21.9921ZM371.958 2.40538C376.461 2.40538 380.154 6.36132 380.154 11.1856C380.154 16.0099 376.461 19.9659 371.958 19.9659C367.455 19.9659 363.762 16.0099 363.762 11.1856C363.762 6.36132 367.365 2.40538 371.958 2.40538Z"/><path fill="#616161" fill-opacity=".1" d="M720.59 10.2208H396.365V12.1505H720.59V21.0273H722.391V1.44055H720.59V10.2208Z"/><path fill="#616161" fill-opacity=".1" d="M450.403 236.481H722.391V83.7433H450.403V236.481ZM588.288 160.16L720.5 86.3485V233.972L588.288 160.16ZM717.798 234.551H454.996L586.397 161.222L717.798 234.551ZM586.397 159.003L454.996 85.6731H717.798L586.397 159.003ZM584.416 160.16L452.204 233.972V86.3485L584.416 160.16Z"/><path fill="#616161" fill-opacity=".1" d="M719.87 486.96C709.242 486.96 703.658 467.083 698.255 447.883C692.581 428.006 686.817 407.455 674.838 407.455C662.95 407.455 657.096 428.006 651.422 447.883C646.018 467.083 640.344 486.96 629.807 486.96C619.27 486.96 613.596 467.083 608.192 447.883C602.518 428.006 596.754 407.455 584.776 407.455C572.888 407.455 567.033 428.006 561.36 447.883C555.956 467.083 550.282 486.96 539.745 486.96C529.117 486.96 523.533 467.083 518.13 447.883C512.456 428.006 506.692 407.455 494.713 407.455C482.735 407.455 476.971 428.006 471.297 447.883C465.893 467.083 460.219 486.96 449.682 486.96V488.889C461.57 488.889 467.424 468.338 473.098 448.461C478.502 429.261 484.176 409.385 494.713 409.385C505.251 409.385 510.925 429.261 516.328 448.461C522.002 468.338 527.766 488.889 539.745 488.889C551.633 488.889 557.487 468.338 563.161 448.461C568.565 429.261 574.238 409.385 584.776 409.385C595.403 409.385 600.987 429.261 606.391 448.461C612.065 468.338 617.829 488.889 629.807 488.889C641.785 488.889 647.549 468.338 653.223 448.461C658.627 429.261 664.301 409.385 674.838 409.385C685.376 409.385 691.05 429.261 696.453 448.461C702.127 468.338 707.891 488.889 719.87 488.889V486.96Z"/><path fill="#616161" fill-opacity=".1" d="M538.664 558.842L546.859 567.622L555.055 558.842L546.859 550.061L538.664 558.842ZM546.859 563.569L542.536 558.938L546.859 554.307L551.182 558.938L546.859 563.569Z"/><path fill="#616161" fill-opacity=".1" d="M711.652 550.14L703.5 558.873L711.652 567.606L719.803 558.873L711.652 550.14Z"/><path fill="#616161" fill-opacity=".1" d="M690.149 557.394H564.512V560.289H690.149V557.394Z"/><path fill="#616161" fill-opacity=".1" d="M343.048 283.566H332.241V295.145H343.048V283.566Z"/><path fill="#616161" fill-opacity=".1" d="M359.714 281.138L352.072 289.325L359.714 297.512L367.356 289.325L359.714 281.138Z"/><path fill="#616161" fill-opacity=".1" d="M381.775 283.18L375.11 295.531H388.44L381.775 283.18Z"/><path fill="#616161" fill-opacity=".1" d="M397.806 289.356C397.806 292.926 400.508 295.82 403.84 295.82C407.173 295.82 409.874 292.926 409.874 289.356C409.874 285.786 407.173 282.891 403.84 282.891C400.508 282.891 397.806 285.786 397.806 289.356Z"/><path fill="#616161" fill-opacity=".1" d="M547.85 354.387C544.068 354.387 540.915 357.668 540.915 361.817C540.915 365.966 543.977 369.246 547.85 369.246C551.723 369.246 554.785 365.966 554.785 361.817C554.785 357.668 551.633 354.387 547.85 354.387ZM547.85 367.22C545.058 367.22 542.717 364.808 542.717 361.72C542.717 358.633 544.968 356.221 547.85 356.221C550.732 356.221 552.984 358.633 552.984 361.72C552.984 364.808 550.642 367.22 547.85 367.22Z"/><path fill="#616161" fill-opacity=".1" d="M422.663 290.32H546.95V346.475H548.751V288.391H422.663V290.32Z"/><path fill="#616161" fill-opacity=".1" d="M1094.98 296.11H1105.16V284.821H1094.98V296.11ZM1096.78 286.654H1103.36V294.083H1096.78V286.654Z"/><path fill="#616161" fill-opacity=".1" d="M1079.49 284.724H1069.31V296.013H1079.49V284.724ZM1077.69 294.18H1071.11V286.75H1077.69V294.18Z"/><path fill="#616161" fill-opacity=".1" d="M1053.82 284.724H1043.64V296.013H1053.82V284.724ZM1052.02 294.18H1045.45V286.75H1052.02V294.18Z"/><path fill="#616161" fill-opacity=".1" d="M1018.07 296.11H1028.24V284.821H1018.07V296.11ZM1019.87 286.654H1026.44V294.083H1019.87V286.654Z"/><path fill="#616161" fill-opacity=".1" d="M1024.1 310.679H1022.3V381.789H1099.21V568.587H1101.01V380.825V379.86V310.679H1099.21V379.86H1075.35V310.679H1073.55V379.86H1049.68V310.679H1047.88V379.86H1024.1V310.679Z"/><path fill="#616161" fill-opacity=".1" d="M1100.11 593.094C1103.6 593.094 1106.42 590.07 1106.42 586.34C1106.42 582.61 1103.6 579.586 1100.11 579.586C1096.63 579.586 1093.81 582.61 1093.81 586.34C1093.81 590.07 1096.63 593.094 1100.11 593.094Z"/><path fill="#616161" fill-opacity=".1" d="M399.157 354.291H329.809V394.912H399.157V354.291ZM397.356 392.982H331.61V356.221H397.356V392.982Z"/><path fill="#616161" fill-opacity=".1" d="M399.157 408.902H329.809V449.523H399.157V408.902ZM397.356 447.69H331.61V410.928H397.356V447.69Z"/><path fill="#616161" fill-opacity=".1" d="M399.157 463.61H329.809V504.231H399.157V463.61ZM397.356 502.301H331.61V465.54H397.356V502.301Z"/><path fill="#616161" fill-opacity=".1" d="M364.483 381.789C368.213 381.789 371.238 378.55 371.238 374.553C371.238 370.556 368.213 367.316 364.483 367.316C360.752 367.316 357.728 370.556 357.728 374.553C357.728 378.55 360.752 381.789 364.483 381.789Z"/><path fill="#616161" fill-opacity=".1" d="M714.376 631.592H690.869V623.102H697.264V607.567H682.764V623.102H689.158V631.592H665.652V642.013H659.258V657.547H673.758V642.013H667.363V633.522H689.068V642.013H682.674V657.547H697.174V642.013H690.779V633.522H712.484V642.013H706.09V657.547H720.59V642.013H714.196V631.592H714.376ZM684.565 609.497H695.463V621.172H684.565V609.497ZM672.046 655.617H661.149V643.943H672.046V655.617ZM695.463 655.617H684.565V643.943H695.463V655.617ZM718.969 655.617H708.071V643.943H718.969V655.617Z"/><path fill="#616161" fill-opacity=".1" d="M360.43 574.858H330.71V576.788H360.43V574.858Z"/><path fill="#616161" fill-opacity=".1" d="M344.669 533.466V562.894L333.772 551.219L332.421 552.57L345.57 566.657L358.629 552.57L357.368 551.219L346.47 562.894V533.466H344.669Z"/><path fill="#616161" fill-opacity=".1" d="M823.351 103.909L868.923 73.4193L852.982 62.7093L868.923 51.9994L852.982 41.2894L868.923 30.5794L823.351 0.282715L777.78 30.7724L793.721 41.4824L777.78 52.1923L793.721 62.9023L777.78 73.6123L823.351 103.909ZM823.351 2.59839L865.591 30.7724L823.351 58.9464L781.112 30.7724L823.351 2.59839ZM795.432 42.5437L823.351 61.1656L851.271 42.5437L865.501 52.0958L823.261 80.2698L781.022 52.0958L795.432 42.5437ZM823.351 82.5855L851.271 63.9637L865.501 73.5158L823.351 101.593L781.112 73.4193L795.342 63.8672L823.351 82.5855Z"/><path fill="#616161" fill-opacity=".1" d="M797.413 321.582L796.153 320.135L785.975 331.038V289.356H784.174V331.038L774.087 320.135L772.826 321.582L785.075 334.704L797.413 321.582Z"/><path fill="#616161" fill-opacity=".1" d="M816.507 333.353V291.671L826.684 302.574L827.945 301.127L815.606 288.005L803.267 301.127L804.528 302.574L814.705 291.671V333.353H816.507Z"/><path fill="#616161" fill-opacity=".1" d="M925.482 285.689H939.982L912.243 315.503L913.504 316.854L941.333 287.136V302.671H943.134V283.759H925.482V285.689Z"/><path fill="#616161" fill-opacity=".1" d="M941.333 334.415H895.852V285.689H906.569V283.759H894.05V336.344H943.134V322.354H941.333V334.415Z"/><path fill="#616161" fill-opacity=".1" d="M924.131 374.456H791.109C780.842 374.456 772.556 383.43 772.556 394.333V702.124C772.556 713.123 780.932 722 791.109 722H924.131C934.398 722 942.684 713.027 942.684 702.124V394.333C942.684 383.333 934.398 374.456 924.131 374.456ZM774.357 402.823L856.134 550.061L774.628 697.685H774.267V402.823H774.357ZM857.215 551.991L938.181 697.685H776.789L857.215 551.991ZM940.162 697.685L858.206 550.061L940.703 400.508H940.883V697.589H940.162V697.685ZM857.125 548.228L775.078 400.604H938.541L857.125 548.228ZM924.131 720.07H791.109C781.833 720.07 774.357 711.965 774.357 702.124V699.712H940.973V702.124C940.883 711.965 933.408 720.07 924.131 720.07ZM940.883 398.675H774.267V394.333C774.267 384.395 781.833 376.386 791.019 376.386H924.041C933.318 376.386 940.793 384.491 940.793 394.333V398.675H940.883Z"/><path fill="#616161" fill-opacity=".1" d="M901.436 237.542H986.184V146.749H901.436V237.542ZM903.237 148.582H984.383V235.516H903.237V148.582Z"/><path fill="#616161" fill-opacity=".1" d="M823.351 145.495L773.637 237.735H873.066L823.351 145.495ZM823.351 149.354L870.004 235.806H776.699L823.351 149.354Z"/><path fill="#616161" fill-opacity=".1" d="M1064.27 143.179C1038.42 143.179 1017.35 165.757 1017.35 193.448C1017.35 221.14 1038.42 243.718 1064.27 243.718C1090.12 243.718 1111.19 221.14 1111.19 193.448C1111.19 165.757 1090.21 143.179 1064.27 143.179ZM1064.27 241.788C1039.41 241.788 1019.15 220.078 1019.15 193.448C1019.15 166.818 1039.41 145.109 1064.27 145.109C1089.13 145.109 1109.39 166.818 1109.39 193.448C1109.39 220.078 1089.22 241.788 1064.27 241.788Z"/><path fill="#616161" fill-opacity=".1" d="M1071.83 9.35239C1069.22 9.35239 1067.15 11.5716 1067.15 14.3697C1067.15 17.1678 1069.22 19.387 1071.83 19.387C1074.45 19.387 1076.52 17.1678 1076.52 14.3697C1076.61 11.5716 1074.45 9.35239 1071.83 9.35239ZM1071.83 17.5537C1070.21 17.5537 1068.95 16.1064 1068.95 14.4662C1068.95 12.8259 1070.3 11.3786 1071.83 11.3786C1073.36 11.3786 1074.72 12.8259 1074.72 14.4662C1074.72 16.1064 1073.45 17.5537 1071.83 17.5537Z"/><path fill="#616161" fill-opacity=".1" d="M1071.83 33.474C1069.22 33.474 1067.15 35.6932 1067.15 38.4913C1067.15 41.2894 1069.22 43.5086 1071.83 43.5086C1074.45 43.5086 1076.52 41.2894 1076.52 38.4913C1076.61 35.6932 1074.45 33.474 1071.83 33.474ZM1071.83 41.6753C1070.21 41.6753 1068.95 40.228 1068.95 38.5878C1068.95 36.9475 1070.3 35.5002 1071.83 35.5002C1073.36 35.5002 1074.72 36.9475 1074.72 38.5878C1074.72 40.228 1073.45 41.6753 1071.83 41.6753Z"/><path fill="#616161" fill-opacity=".1" d="M1071.83 57.5955C1069.22 57.5955 1067.15 59.8147 1067.15 62.6128C1067.15 65.4109 1069.22 67.6301 1071.83 67.6301C1074.45 67.6301 1076.52 65.4109 1076.52 62.6128C1076.61 59.8147 1074.45 57.5955 1071.83 57.5955ZM1071.83 65.7969C1070.21 65.7969 1068.95 64.3496 1068.95 62.7093C1068.95 61.069 1070.3 59.6217 1071.83 59.6217C1073.36 59.6217 1074.72 61.069 1074.72 62.7093C1074.72 64.3496 1073.45 65.7969 1071.83 65.7969Z"/><path fill="#616161" fill-opacity=".1" d="M1031.76 98.4092H978.259V100.339H1031.76V98.4092Z"/><path fill="#616161" fill-opacity=".1" d="M1110.29 98.4092H1056.79V100.339H1110.29V98.4092Z"/><path fill="#616161" fill-opacity=".1" d="M1037.25 99.3741C1037.25 103.523 1040.4 106.9 1044.27 106.9C1048.15 106.9 1051.3 103.523 1051.3 99.3741C1051.3 95.2252 1048.15 91.8482 1044.27 91.8482C1040.4 91.8482 1037.25 95.2252 1037.25 99.3741ZM1049.41 99.3741C1049.41 102.462 1047.07 104.97 1044.18 104.97C1041.3 104.97 1038.96 102.462 1038.96 99.3741C1038.96 96.2865 1041.3 93.7779 1044.18 93.7779C1047.07 93.7779 1049.41 96.2865 1049.41 99.3741Z"/><path fill="#616161" fill-opacity=".1" d="M1043.37 85.6731H1045.18V75.735H1082.73V51.6134V49.6837V27.4918V25.5621V1.44055H1005.91V25.5621V27.4918V49.6837V51.6134V75.735H1043.46V85.6731H1043.37ZM1007.62 3.27379H1080.84V25.4656H1007.62V3.27379ZM1007.62 27.3954H1080.84V49.5872H1007.62V27.3954ZM1007.62 51.5169H1080.84V73.7088H1007.62V51.5169Z"/><path fill="#616161" fill-opacity=".1" d="M1017.89 684.081V675.397C1017.89 652.337 1035.36 633.619 1056.88 633.619C1063.91 633.619 1070.75 635.645 1076.79 639.504L1077.69 637.864C1071.38 633.908 1064.18 631.785 1056.88 631.785C1034.37 631.785 1016.09 651.372 1016.09 675.494V683.888L1003.12 669.994L1001.86 671.345L1017.08 687.651L1032.03 671.634L1030.77 670.283L1017.89 684.081Z"/><path fill="#616161" fill-opacity=".1" d="M1080.75 678.099L1082.01 679.45L1094.98 665.556V674.239C1094.98 697.3 1077.51 716.018 1055.98 716.018C1048.96 716.018 1042.11 713.992 1036.08 710.132L1035.18 711.773C1041.48 715.728 1048.69 717.851 1055.98 717.851C1078.5 717.851 1096.78 698.264 1096.78 674.143V665.749L1109.75 679.643L1111.01 678.292L1095.79 661.986L1080.75 678.099Z"/><path fill="#616161" fill-opacity=".1" d="M334.762 210.43L333.501 211.781L342.147 221.043L333.501 230.306L334.762 231.657L344.669 221.043L334.762 210.43Z"/><path fill="#616161" fill-opacity=".1" d="M377.362 236.288H350.974V238.218H377.362V236.288Z"/><path fill="#616161" fill-opacity=".1" d="M264.964 296.11H275.141V284.821H264.964V296.11ZM266.765 286.654H273.34V294.083H266.765V286.654Z"/><path fill="#616161" fill-opacity=".1" d="M249.473 284.724H239.296V296.013H249.473V284.724ZM247.672 294.18H241.097V286.75H247.672V294.18Z"/><path fill="#616161" fill-opacity=".1" d="M223.805 284.724H213.628V296.013H223.805V284.724ZM222.004 294.18H215.43V286.75H222.004V294.18Z"/><path fill="#616161" fill-opacity=".1" d="M188.05 296.11H198.228V284.821H188.05V296.11ZM189.852 286.654H196.426V294.083H189.852V286.654Z"/><path fill="#616161" fill-opacity=".1" d="M193.995 310.679H192.193V381.789H269.107V568.587H270.908V380.825V379.86V310.679H269.107V379.86H245.33V310.679H243.529V379.86H219.662V310.679H217.861V379.86H193.995V310.679Z"/><path fill="#616161" fill-opacity=".1" d="M275.836 588.995C277.168 585.549 275.641 581.598 272.424 580.17C269.207 578.743 265.519 580.379 264.187 583.825C262.854 587.272 264.382 591.223 267.599 592.65C270.815 594.078 274.503 592.441 275.836 588.995Z"/><path fill="#616161" fill-opacity=".1" d="M95.4662 285.689H109.966L82.2271 315.503L83.4879 316.854L111.227 287.136V302.671H113.028V283.759H95.4662V285.689Z"/><path fill="#616161" fill-opacity=".1" d="M111.227 334.415H65.7456V285.689H76.5531V283.759H63.9443V336.344H113.028V322.354H111.227V334.415Z"/><path fill="#616161" fill-opacity=".1" d="M71.4196 237.542H156.168V146.749H71.4196V237.542ZM73.2208 148.582H154.367V235.516H73.2208V148.582Z"/><path fill="#616161" fill-opacity=".1" d="M234.253 143.179C208.405 143.179 187.33 165.757 187.33 193.448C187.33 221.14 208.405 243.718 234.253 243.718C260.1 243.718 281.175 221.14 281.175 193.448C281.175 165.757 260.1 143.179 234.253 143.179ZM234.253 241.788C209.395 241.788 189.131 220.078 189.131 193.448C189.131 166.818 209.395 145.109 234.253 145.109C259.11 145.109 279.374 166.818 279.374 193.448C279.374 220.078 259.11 241.788 234.253 241.788Z"/><path fill="#616161" fill-opacity=".1" d="M241.818 9.35239C239.206 9.35239 237.135 11.5716 237.135 14.3697C237.135 17.1678 239.206 19.387 241.818 19.387C244.43 19.387 246.501 17.1678 246.501 14.3697C246.591 11.5716 244.43 9.35239 241.818 9.35239ZM241.818 17.5537C240.197 17.5537 238.936 16.1064 238.936 14.4662C238.936 12.8259 240.287 11.3786 241.818 11.3786C243.349 11.3786 244.7 12.8259 244.7 14.4662C244.7 16.1064 243.439 17.5537 241.818 17.5537Z"/><path fill="#616161" fill-opacity=".1" d="M241.818 33.474C239.206 33.474 237.135 35.6932 237.135 38.4913C237.135 41.2894 239.206 43.5086 241.818 43.5086C244.43 43.5086 246.501 41.2894 246.501 38.4913C246.591 35.6932 244.43 33.474 241.818 33.474ZM241.818 41.6753C240.197 41.6753 238.936 40.228 238.936 38.5878C238.936 36.9475 240.287 35.5002 241.818 35.5002C243.349 35.5002 244.7 36.9475 244.7 38.5878C244.7 40.228 243.439 41.6753 241.818 41.6753Z"/><path fill="#616161" fill-opacity=".1" d="M241.818 57.5955C239.206 57.5955 237.135 59.8147 237.135 62.6128C237.135 65.4109 239.206 67.6301 241.818 67.6301C244.43 67.6301 246.501 65.4109 246.501 62.6128C246.591 59.8147 244.43 57.5955 241.818 57.5955ZM241.818 65.7969C240.197 65.7969 238.936 64.3496 238.936 62.7093C238.936 61.069 240.287 59.6217 241.818 59.6217C243.349 59.6217 244.7 61.069 244.7 62.7093C244.7 64.3496 243.439 65.7969 241.818 65.7969Z"/><path fill="#616161" fill-opacity=".1" d="M201.65 98.4092H148.153V100.339H201.65V98.4092Z"/><path fill="#616161" fill-opacity=".1" d="M280.275 98.4092H226.777V100.339H280.275V98.4092Z"/><path fill="#616161" fill-opacity=".1" d="M207.234 99.3741C207.234 103.523 210.386 106.9 214.259 106.9C218.131 106.9 221.284 103.523 221.284 99.3741C221.284 95.2252 218.131 91.8482 214.259 91.8482C210.386 91.8482 207.234 95.2252 207.234 99.3741ZM219.392 99.3741C219.392 102.462 217.051 104.97 214.169 104.97C211.287 104.97 208.945 102.462 208.945 99.3741C208.945 96.2865 211.287 93.7779 214.169 93.7779C217.051 93.7779 219.392 96.2865 219.392 99.3741Z"/><path fill="#616161" fill-opacity=".1" d="M213.358 85.6731H215.159V75.735H252.715V51.6134V49.6837V27.4918V25.5621V1.44055H175.892V25.5621V27.4918V49.6837V51.6134V75.735H213.448V85.6731H213.358ZM177.603 3.27379H250.824V25.4656H177.603V3.27379ZM177.603 27.3954H250.824V49.5872H177.603V27.3954ZM177.603 51.5169H250.824V73.7088H177.603V51.5169Z"/><path fill="#616161" fill-opacity=".1" d="M187.87 684.081V675.397C187.87 652.337 205.342 633.619 226.867 633.619C233.892 633.619 240.737 635.645 246.771 639.504L247.672 637.864C241.367 633.908 234.162 631.785 226.867 631.785C204.352 631.785 186.069 651.372 186.069 675.494V683.888L173.1 669.897L171.839 671.248L187.06 687.554L202.01 671.538L200.749 670.187L187.87 684.081Z"/><path fill="#616161" fill-opacity=".1" d="M250.644 678.099L251.905 679.45L264.874 665.556V674.239C264.874 697.3 247.402 716.018 225.877 716.018C218.852 716.018 212.007 713.992 205.973 710.132L205.072 711.773C211.377 715.728 218.582 717.851 225.877 717.851C248.392 717.851 266.675 698.264 266.675 674.143V665.749L279.644 679.643L280.905 678.292L265.684 661.986L250.644 678.099Z"/><path fill="#616161" fill-opacity=".1" d="M1168.37 608.299L1160.73 616.486L1168.37 624.673L1176.01 616.486L1168.37 608.299Z"/><path fill="#616161" fill-opacity=".1" d="M1404.79 616.541L1414.34 626.768L1423.89 616.541L1414.34 606.313L1404.79 616.541ZM1414.34 622.619L1408.67 616.541L1414.34 610.462L1420.02 616.541L1414.34 622.619Z"/><path fill="#616161" fill-opacity=".1" d="M1404.79 638.443L1414.34 648.67L1423.89 638.443L1414.34 628.215L1404.79 638.443ZM1414.34 644.522L1408.67 638.443L1414.34 632.364L1420.02 638.443L1414.34 644.522Z"/><path fill="#616161" fill-opacity=".1" d="M1404.79 660.345L1414.34 670.573L1423.89 660.345L1414.34 650.118L1404.79 660.345ZM1414.34 666.424L1408.67 660.345L1414.34 654.267L1420.02 660.345L1414.34 666.424Z"/><path fill="#616161" fill-opacity=".1" d="M1404.79 682.151L1414.34 692.379L1423.89 682.151L1414.34 671.924L1404.79 682.151ZM1414.34 688.326L1408.67 682.248L1414.34 676.169L1420.02 682.248L1414.34 688.326Z"/><path fill="#616161" fill-opacity=".1" d="M1404.79 704.054L1414.34 714.281L1423.89 704.054L1414.34 693.826L1404.79 704.054ZM1414.34 710.229L1408.67 704.15L1414.34 698.071L1420.02 704.15L1414.34 710.229Z"/><path fill="#616161" fill-opacity=".1" d="M1326.89 615.093H1185.58V617.988H1326.89V705.501H1394.98V702.606H1329.59V683.598H1394.98V680.704H1329.59V661.793H1394.98V658.898H1329.59V639.89H1394.98V636.996H1329.59V617.988H1394.98V615.093H1328.24H1326.89Z"/><path fill="#616161" fill-opacity=".1" d="M1199.36 151.477C1220.35 151.477 1237.37 133.144 1237.37 110.759C1237.37 88.3747 1220.26 70.0423 1199.36 70.0423C1178.47 70.0423 1161.36 88.3747 1161.36 110.759C1161.36 133.144 1178.38 151.477 1199.36 151.477ZM1199.36 71.8755C1219.36 71.8755 1235.57 89.3395 1235.57 110.663C1235.57 131.986 1219.27 149.45 1199.36 149.45C1179.46 149.45 1163.16 131.986 1163.16 110.663C1163.16 89.3395 1179.37 71.8755 1199.36 71.8755Z"/><path fill="#616161" fill-opacity=".1" d="M1209.81 104.005L1208.55 102.655L1195.4 116.645L1190.27 111.145L1189.01 112.496L1195.4 119.443L1209.81 104.005Z"/><path fill="#616161" fill-opacity=".1" d="M1171.35 20.9308C1176.38 20.9308 1180.45 16.5677 1180.45 11.1857C1180.45 5.80359 1176.38 1.44055 1171.35 1.44055C1166.33 1.44055 1162.26 5.80359 1162.26 11.1857C1162.26 16.5677 1166.33 20.9308 1171.35 20.9308Z"/><path fill="#616161" fill-opacity=".1" d="M1201.97 21.9921C1207.47 21.9921 1211.97 17.1678 1211.97 11.2821C1211.97 5.39646 1207.47 0.572144 1201.97 0.572144C1196.48 0.572144 1191.98 5.39646 1191.98 11.2821C1191.98 17.1678 1196.39 21.9921 1201.97 21.9921ZM1201.97 2.40538C1206.48 2.40538 1210.17 6.36132 1210.17 11.1856C1210.17 16.0099 1206.48 19.9659 1201.97 19.9659C1197.47 19.9659 1193.78 16.0099 1193.78 11.1856C1193.78 6.36132 1197.38 2.40538 1201.97 2.40538Z"/><path fill="#616161" fill-opacity=".1" d="M1376.88 550.158L1368.68 558.938L1376.88 567.718L1385.07 558.938L1376.88 550.158ZM1372.46 558.842L1376.79 554.21L1381.11 558.842L1376.79 563.473L1372.46 558.842Z"/><path fill="#616161" fill-opacity=".1" d="M1173.06 283.566H1162.26V295.145H1173.06V283.566Z"/><path fill="#616161" fill-opacity=".1" d="M1189.73 281.156L1182.09 289.343L1189.73 297.53L1197.37 289.343L1189.73 281.156Z"/><path fill="#616161" fill-opacity=".1" d="M1211.79 283.18L1205.13 295.531H1218.46L1211.79 283.18Z"/><path fill="#616161" fill-opacity=".1" d="M1227.82 289.356C1227.82 292.926 1230.52 295.82 1233.86 295.82C1237.19 295.82 1239.89 292.926 1239.89 289.356C1239.89 285.786 1237.19 282.891 1233.86 282.891C1230.52 282.891 1227.82 285.786 1227.82 289.356Z"/><path fill="#616161" fill-opacity=".1" d="M1370.93 361.817C1370.93 365.869 1373.99 369.246 1377.87 369.246C1381.74 369.246 1384.8 365.966 1384.8 361.817C1384.8 357.668 1381.74 354.387 1377.87 354.387C1373.99 354.387 1370.93 357.668 1370.93 361.817ZM1382.91 361.817C1382.91 364.808 1380.66 367.316 1377.78 367.316C1374.89 367.316 1372.64 364.904 1372.64 361.817C1372.64 358.729 1374.89 356.317 1377.78 356.317C1380.66 356.317 1382.91 358.826 1382.91 361.817Z"/><path fill="#616161" fill-opacity=".1" d="M1252.68 290.32H1376.97V346.475H1378.77V288.391H1252.68V290.32Z"/><path fill="#616161" fill-opacity=".1" d="M1229.17 354.291H1159.82V394.912H1229.17V354.291ZM1227.37 392.982H1161.63V356.221H1227.37V392.982Z"/><path fill="#616161" fill-opacity=".1" d="M1229.17 408.902H1159.82V449.523H1229.17V408.902ZM1227.37 447.69H1161.63V410.928H1227.37V447.69Z"/><path fill="#616161" fill-opacity=".1" d="M1229.17 463.61H1159.82V504.231H1229.17V463.61ZM1227.37 502.301H1161.63V465.54H1227.37V502.301Z"/><path fill="#616161" fill-opacity=".1" d="M1194.5 381.789C1198.23 381.789 1201.25 378.55 1201.25 374.553C1201.25 370.556 1198.23 367.316 1194.5 367.316C1190.77 367.316 1187.74 370.556 1187.74 374.553C1187.74 378.55 1190.77 381.789 1194.5 381.789Z"/><path fill="#616161" fill-opacity=".1" d="M1190.45 574.858H1160.73V576.788H1190.45V574.858Z"/><path fill="#616161" fill-opacity=".1" d="M1174.69 533.466V562.894L1163.79 551.219L1162.53 552.57L1175.59 566.657L1188.64 552.57L1187.38 551.219L1176.49 562.894V533.466H1174.69Z"/><path fill="#616161" fill-opacity=".1" d="M1164.78 210.43L1163.52 211.781L1172.16 221.043L1163.52 230.306L1164.78 231.657L1174.69 221.043L1164.78 210.43Z"/><path fill="#616161" fill-opacity=".1" d="M1207.47 236.288H1181.08V238.218H1207.47V236.288Z"/><path fill="#616161" fill-opacity=".1" d="M22.9659 41.3858L38.907 30.7723L0 4.72104V7.03671L35.4846 30.7723L0 54.508V56.7271L21.2547 42.5437L35.4846 52.0958L0 75.8314V78.0506L21.2547 63.8671L35.4846 73.4193L0 97.1549V99.3741L38.907 73.4193L22.9659 62.7093L38.907 52.0958L22.9659 41.3858Z"/><path fill="#616161" fill-opacity=".1" d="M0 157.845V161.704L39.8977 235.806H0V237.735H43.0499L0 157.845Z"/><path fill="#616161" fill-opacity=".1" d="M94.1153 374.456H0V376.386H94.1153C103.392 376.386 110.867 384.491 110.867 394.333V398.675H0V400.604H108.615L27.1088 548.228L0 499.406V503.169L26.1181 550.158L0 597.436V601.199L27.1088 551.991L107.985 697.686H0V699.615H110.867V702.027C110.867 711.965 103.302 719.974 94.1153 719.974H0V721.904H94.1153C104.382 721.904 112.668 712.93 112.668 702.027V394.236C112.668 383.333 104.382 374.456 94.1153 374.456ZM110.867 697.686H110.146V697.589L28.1896 550.062L110.687 400.508H110.867V697.686Z"/><path fill="#616161" fill-opacity=".1" d="M1441 557.394H1394.62V560.289H1441V557.394Z"/><path fill="#616161" fill-opacity=".1" d="M1441 457.628C1440.01 454.444 1439.11 451.163 1438.21 447.883C1432.53 428.006 1426.77 407.455 1414.79 407.455C1402.9 407.455 1397.05 428.006 1391.38 447.883C1385.97 467.083 1380.3 486.96 1369.76 486.96C1359.13 486.96 1353.55 467.083 1348.15 447.883C1342.47 428.006 1336.71 407.455 1324.73 407.455C1312.75 407.455 1306.99 428.006 1301.31 447.883C1295.91 467.083 1290.24 486.863 1279.7 486.863V488.793C1291.59 488.793 1297.44 468.241 1303.11 448.365C1308.52 429.164 1314.19 409.288 1324.73 409.288C1335.27 409.288 1340.94 429.164 1346.34 448.365C1352.02 468.241 1357.78 488.793 1369.76 488.793C1381.65 488.793 1387.5 468.241 1393.18 448.365C1398.58 429.164 1404.25 409.385 1414.79 409.385C1425.33 409.385 1431 429.261 1436.41 448.461C1437.85 453.575 1439.38 458.785 1440.91 463.706V457.628H1441Z"/><path fill="#616161" fill-opacity=".1" d="M1441 234.551H1285.01L1416.41 161.222L1441 174.923V172.704L1418.39 160.064L1441 147.424V145.205L1416.41 158.906L1285.01 85.5766H1441V83.6469H1280.42V236.385H1441V234.551ZM1282.22 86.3485L1414.43 160.16L1282.22 233.972V86.3485Z"/><path fill="#616161" fill-opacity=".1" d="M1441 10.2208H1226.38V12.1505H1441V10.2208Z"/></g></svg>