<svg xmlns="http://www.w3.org/2000/svg" width="32" height="32" fill="none" viewBox="0 0 32 32"><path fill="#000" d="M29.01 5.03002L23.244 2.25402C22.9184 2.09702 22.552 2.04521 22.1956 2.10577C21.8392 2.16633 21.5105 2.33627 21.255 2.59202L2.38003 19.8C2.15102 20.0078 2.01394 20.2981 1.99893 20.607C1.98393 20.9158 2.09224 21.218 2.30003 21.447C2.32503 21.474 2.35003 21.5 2.37703 21.524L3.91803 22.924C4.11939 23.1073 4.37859 23.2142 4.65059 23.2263C4.9226 23.2383 5.19024 23.1548 5.40703 22.99L28.142 5.75002C28.3138 5.61971 28.5184 5.53992 28.7331 5.51963C28.9477 5.49935 29.1637 5.53937 29.3568 5.63519C29.5499 5.73101 29.7124 5.87883 29.826 6.06201C29.9397 6.24519 29.9999 6.45645 30 6.67202V6.60502C30 6.27592 29.9071 5.95351 29.7319 5.67488C29.5568 5.39626 29.3066 5.17273 29.01 5.03002Z"/><path fill="#000" d="M29.01 26.97L23.244 29.747C22.9183 29.9036 22.552 29.9551 22.1957 29.8946C21.8394 29.8341 21.5107 29.6644 21.255 29.409L2.38003 12.2C2.15102 11.9922 2.01394 11.702 1.99893 11.3931C1.98393 11.0842 2.09224 10.782 2.30003 10.553C2.32503 10.526 2.35003 10.5 2.37703 10.476L3.91803 9.07602C4.1196 8.89199 4.37938 8.78456 4.65206 8.7725C4.92474 8.76044 5.193 8.8445 5.41003 9.01002L28.142 26.25C28.3138 26.3803 28.5184 26.4601 28.7331 26.4804C28.9477 26.5007 29.1637 26.4607 29.3568 26.3649C29.5499 26.269 29.7124 26.1212 29.826 25.938C29.9397 25.7549 29.9999 25.5436 30 25.328V25.4C29.999 25.7282 29.9055 26.0495 29.7305 26.3272C29.5554 26.6048 29.3057 26.8276 29.01 26.97Z"/><path fill="#000" d="M23.244 29.747C22.9183 29.9036 22.552 29.9552 22.1957 29.8946C21.8394 29.8341 21.5107 29.6644 21.255 29.409C21.3986 29.5508 21.5808 29.647 21.7789 29.6856C21.9769 29.7242 22.1819 29.7035 22.3683 29.6261C22.5546 29.5486 22.7139 29.418 22.8263 29.2504C22.9387 29.0828 22.9991 28.8858 23 28.684V3.31603C23.0001 3.11332 22.9401 2.91512 22.8276 2.74654C22.715 2.57796 22.5549 2.44658 22.3676 2.36904C22.1803 2.29151 21.9742 2.27131 21.7755 2.31101C21.5767 2.35071 21.3941 2.44851 21.251 2.59203C21.5065 2.33637 21.8352 2.16643 22.1915 2.1057C22.5478 2.04496 22.9142 2.09645 23.24 2.25303L29.005 5.02503C29.3025 5.16703 29.5537 5.39025 29.7298 5.66893C29.9058 5.94761 29.9995 6.2704 30 6.60003V25.4C30.0001 25.7294 29.9071 26.0521 29.7317 26.3309C29.5564 26.6098 29.3059 26.8334 29.009 26.976L23.244 29.747Z"/></svg>